<svg xmlns="http://www.w3.org/2000/svg" xmlns:xlink="http://www.w3.org/1999/xlink" width="435" height="435" viewBox="0 0 435 435">
  <defs>
    <style>
      .cls-1, .cls-3 {
        fill: #fff;
      }

      .cls-1, .cls-2 {
        stroke: #707070;
      }

      .cls-2 {
        fill: url(#linear-gradient);
      }

      .cls-4 {
        clip-path: url(#clip-path);
      }

      .cls-5 {
        opacity: 0.599;
        clip-path: url(#clip-path-2);
      }

      .cls-6 {
        fill: url(#linear-gradient-2);
      }

      .cls-7 {
        fill: #0095e8;
        font-size: 85px;
        font-family: 001Shirokuma-Regular, "001Shirokuma";
        letter-spacing: -0.1em;
      }
    </style>
    <linearGradient id="linear-gradient" x1="0.06" y1="0.84" x2="0.292" y2="0.389" gradientUnits="objectBoundingBox">
      <stop offset="0" stop-color="#0095e8"/>
      <stop offset="1" stop-color="#00aaaf"/>
    </linearGradient>
    <clipPath id="clip-path">
      <ellipse id="楕円形_11" data-name="楕円形 11" class="cls-1" cx="210" cy="209.5" rx="210" ry="209.5" transform="translate(2133 -2225.654)"/>
    </clipPath>
    <clipPath id="clip-path-2">
      <rect id="長方形_66" data-name="長方形 66" class="cls-2" width="592" height="392" transform="translate(0 0.02)"/>
    </clipPath>
    <linearGradient id="linear-gradient-2" x1="0.16" y1="1.135" x2="0.778" y2="0.261" xlink:href="#linear-gradient"/>
  </defs>
  <g id="グループ_361" data-name="グループ 361" transform="translate(-2212 1345)">
    <circle id="楕円形_12" data-name="楕円形 12" class="cls-3" cx="217.5" cy="217.5" r="217.5" transform="translate(2212 -1345)"/>
    <g id="マスクグループ_16" data-name="マスクグループ 16" class="cls-4" transform="translate(87 888.654)">
      <g id="マスクグループ_15" data-name="マスクグループ 15" class="cls-5" transform="translate(2133 -2226.674)">
        <path id="交差_5" data-name="交差 5" class="cls-6" d="M204.435,373.032a23.867,23.867,0,0,1-6.3-.7c-1.4-.35-2.1-1.049-3.5-.7a4.526,4.526,0,0,1-2.8-.7c0-.35-2.8-.7-5.25-.7s-2.45.349-4.55.349-1.75-.349-4.2-.349-2.45.349-3.85,0a16.58,16.58,0,0,0-5.95.349c-1.4.35-2.1,1.05-3.851,1.749-2.1.7-2.1.35-3.15,0a49.877,49.877,0,0,1-5.6-1.049c-1.75,0-1.4-.35-4.55-1.049-3.5-.7-4.2-1.75-6.3-3.148s-1.75-1.4-1.75-1.4-1.4-.35-3.15-.7,0-1.4.35-2.1.35-1.4-1.05-2.449a31.7,31.7,0,0,0-3.15-1.748c-1.05-.7-3.15-.7-3.85-.7a4.447,4.447,0,0,1-2.1-.349c-.7-.35-1.05-1.05-1.75-1.4s-1.75-.35-4.55,0-13.651,2.8-15.4,3.848-10.851,3.148-10.851,3.148a17.248,17.248,0,0,0-3.15,1.4c-1.05.7-4.9,3.848-6.3,4.547-1.4,1.05-2.8,1.05-4.9,1.4a7.839,7.839,0,0,0-3.585,1.075c7.992-62.578-14.137-52.3-53.373-147.191-38.571-93.281-27.628-98.816-9.542-184.912a4.7,4.7,0,0,1,1.4.488c2.1,1.049,1.4.35,3.5,1.749s.7.7,2.1,1.4a5.423,5.423,0,0,0,2.1.7,15.752,15.752,0,0,1,2.8.7s4.55.7,3.85,1.049v.35c2.45,1.049,5.95,2.1,5.95,2.1l8.4,3.5,7,2.1s5.6,1.049,6.3,1.4,5.6,1.4,5.6,1.4a11.517,11.517,0,0,1,2.1,1.049c.35.349-.35,1.049,1.75,1.049h4.55l4.9.7a9.691,9.691,0,0,0,4.9,1.4c3.15,0,2.1-1.4,4.9-.7s3.85,2.8,4.9,2.8a54.97,54.97,0,0,1,5.6,1.049,23.1,23.1,0,0,0,3.85,1.4c.7.35,2.1,0,2.8.35.35.35,1.75.7.7,1.4a1.221,1.221,0,0,1-.7.35l3.15.35-.35-.35s-.35-1.049,1.4-.7c1.75,0,1.05,1.049,3.5,0s3.5-1.4,3.85-1.749c.35,0,.7-1.4.7-1.4s1.4,1.049,1.4,2.1.7,3.148.7,4.2a7.462,7.462,0,0,1,0,2.8c-.35,1.049-1.05,1.049-.7,2.8s-.35,2.448.35,3.148l.7.7a11.835,11.835,0,0,1,1.05,2.8,10.168,10.168,0,0,1,.7,2.8,8.5,8.5,0,0,0,2.1,3.5s1.75-.35,1.75,1.049,1.05,2.449,1.4,3.148,1.75,2.8,1.75,4.2a26.98,26.98,0,0,0,.35,3.5s2.1,1.4,3.5,2.1a5.825,5.825,0,0,1,2.1,1.749,34.872,34.872,0,0,0,3.85,1.4c1.05.349,6.3,1.749,7,2.1.7,0,4.55,2.1,5.95,2.1a24.514,24.514,0,0,1,4.55.7s1.4.35,2.45.7c1.05,0,2.8,1.049,4.9,1.4s0,0,3.5.7c3.85.7,12.6,1.749,16.451,2.1a56.747,56.747,0,0,0,7.7.35c3.5,0,10.5-1.049,14-1.049a83.021,83.021,0,0,0,14.351-2.1c1.75-.35,4.2-.35,4.9-1.749s-.35-1.4,1.75-2.1a9.516,9.516,0,0,0,4.2-2.448c1.05-1.049,1.4-3.847,2.8-4.9,1.05-1.4,7.351-4.547,10.851-8.395a29.464,29.464,0,0,0,4.55-7c1.05-1.4.7-2.448,2.1-3.148s1.75-.35,2.8-1.749a5.994,5.994,0,0,0,1.4-2.1s.35-1.4,1.05-1.4c.7-.349,4.551-2.8,5.6-3.5a36.64,36.64,0,0,0,2.8-3.848,5.931,5.931,0,0,1,2.1-2.8,21.521,21.521,0,0,0,2.1-1.4c1.75-1.049,9.1-7.7,9.8-8.395s.35-1.049,1.05-1.4c.7,0,1.4-.7,2.1-1.4s1.05-1.749,2.45-2.449,1.75-.7,2.1-1.4c.35-1.049,2.1-1.749,2.8-2.448l2.1-2.1c1.4-1.4.35-1.049,2.8-2.1,2.45-1.4,2.8-1.749,4.55-2.8a5.393,5.393,0,0,0,2.45-2.448,51.767,51.767,0,0,0,2.8-4.547c1.05-1.049,0-1.049,1.05-2.8a12.313,12.313,0,0,0,1.4-3.5s-.35-2.1,1.05-2.8c1.4-1.049,2.8-1.4,3.85-2.8a33.9,33.9,0,0,1,2.45-3.148c.7-.7,3.15-3.848,3.5-4.2s0,0,.7-1.049c.7-1.4,1.4-1.4,1.4-1.4s-.35-1.4.35-2.1c.7-.35,1.05-.35,1.75-.7l1.75-1.749,1.4-5.247a3.761,3.761,0,0,1,1.4-1.749c1.05-1.049,1.05-1.749,2.1-.7a5.9,5.9,0,0,1,1.4,2.448,7.882,7.882,0,0,0,.7,2.448,6.013,6.013,0,0,1,.35,2.8,14.487,14.487,0,0,0,.7,5.247,11.8,11.8,0,0,0,1.4,4.2c.7,1.4,1.4,1.4,1.4,2.1v2.8c0,1.049,0,2.448-.7,3.148-1.05.7-2.45,1.4-2.45,2.1l-.7,2.448a27,27,0,0,1,.35,3.5c0,1.4-2.45,2.448-3.15,3.5s-.35,2.1-.7,3.5-.7.7-1.4,1.749a6.621,6.621,0,0,1-1.4,2.1l-.7,1.4c-.35,1.749-1.05,1.749-1.75,2.448-1.05.7,0,0-1.4,2.448-.588,1.371-.517,1.206-.587,1.042-.055-.129-.2-.259-.812.357-1.4,1.4-3.15,2.448-4.2,3.5s-2.45,6.3-2.45,6.3l-1.4,2.8c-.7,1.4-.35,2.1-.35,3.148v3.847c0,2.1,0,1.4-1.05,4.2s-2.45,4.547-2.8,5.946c-.35,1.049-.7,1.049-1.4,1.4a13.085,13.085,0,0,0-2.45,2.1,17.065,17.065,0,0,0-2.8,3.848,33.261,33.261,0,0,1-5.25,6.3c-2.1,1.749-2.1,1.749-2.45,3.148s-1.05,1.749-2.1,2.8-1.4,2.8-1.75,4.2a31.466,31.466,0,0,1-2.45,4.9c-1.75,2.1-.7,1.4-1.4,3.5s-3.5,7-3.5,8.395v9.444c0,3.848-2.45,8.045-3.5,9.794-1.05,1.4-1.75,1.05-2.8,2.8a5.49,5.49,0,0,0-.7,3.5l-.35,1.749a30.7,30.7,0,0,0,.7,5.946c.7,3.148,4.2,7,4.2,7s2.45,3.848,4.55,7a9.127,9.127,0,0,1,1.75,5.946,20.858,20.858,0,0,1,2.45,6.646c1.05,3.847,5.6,4.547,5.6,4.547l5.25,3.848a10.33,10.33,0,0,1,1.05,2.1,4.348,4.348,0,0,0,.7,1.049s.7.7.7,1.049c.35.35,0,.7,0,1.4,0,.35.35,1.049.7,2.448a7.807,7.807,0,0,0,2.45,2.449,3.75,3.75,0,0,1,.7,2.1c0,.35,1.4,4.2,1.75,6.3.35,1.749,3.15,8.045,3.85,10.143.7,2.449,1.05,7.7,1.4,9.444s1.05,3.5,1.4,5.247,1.4,8.045,2.1,10.493,2.1,7.7,3.15,9.095c1.05,1.049,1.75,4.547,2.1,5.247.35.35,6.3,8.045,7.351,9.444,1.05,1.049,4.9,3.848,4.9,3.848a42.165,42.165,0,0,1,4.55,4.2c.35,1.049-2.1-.7-2.1-.7a25.747,25.747,0,0,1-2.1-1.749,6.537,6.537,0,0,1-1.4-1.049l-1.75-.35a4.886,4.886,0,0,0-1.4-1.75c-.7-.349-.7.7-1.4,1.05a1.084,1.084,0,0,1-1.4-.7,10.08,10.08,0,0,1-2.1-1.4c-.7-.35-.7-1.4-1.4-3.5s-1.05-1.4-1.05-2.1-2.8-1.049-5.25-1.749a19.723,19.723,0,0,0-5.6-.7c-1.05,0-2.8,2.8-2.8,3.148s1.05.7,1.05,2.1c0,.8,0,.685-.131.571-.1-.086-.269-.171-.569.129-.7.7.35,1.049.7,1.4l3.15,2.1c2.45,1.749,1.05,0,2.1-.35.7-.349,1.05.35,1.75.7a1.84,1.84,0,0,0,1.065.064,18.421,18.421,0,0,1,4.535.286c4.9.7.7.35,1.75,1.049,1.05.349,1.4.7,3.5,2.1s.35.7,0,1.749c-.35.7-1.05-.35-2.8-1.4s-1.05-.35-2.45-.35-.7,2.1-1.05,3.5c0,1.049,0,1.749.7,2.1.7,0,3.5,2.1,3.5,2.1l1.75-1.749c.7-.7,1.05,0,2.45,0,1.75,0,3.5,2.1,4.2,2.8.35.7,3.5,2.449,3.5,2.449h3.85c1.4,0,3.85.35,5.25.35s.7,0,3.5.7,1.4,0,2.8-1.4c.6-.8.514-.686,0-.571a2.877,2.877,0,0,1-1.754-.129c-1.75-.7-.35-.7-.7-1.049,0-.7-1.75-1.05-1.75-1.05s-.35,0-3.5-.35-.7-.35-2.1-1.049c-1.75-.7-.35-.7-.35-1.4s-2.1-1.049-2.1-1.049a10.98,10.98,0,0,1,3.15-.35c2.1,0,1.05.7,2.1.7,1.05.35.7.7,2.1,1.4s2.1,1.749,2.8,2.1a5.133,5.133,0,0,0,1.75,1.05s.7.349,3.15,1.4,1.05,0,2.1,0,.7-.35,1.4-1.049a13.654,13.654,0,0,1,1.75-1.4l2.8-5.6c.7-1.049,1.75-1.749,4.2-3.5s2.45-2.1,2.45-2.1a10.681,10.681,0,0,0,1.75-3.148c0-.817.6-.8,1.369-.783a3.706,3.706,0,0,0,1.781-.267,4.934,4.934,0,0,0,2.1-2.8c.35-.7,2.1-2.448,2.45-3.148s1.05-.7,3.15-1.4,1.75-1.4,1.75-1.4a27.021,27.021,0,0,1,1.4-2.448,8.266,8.266,0,0,1,3.15-2.8,3.871,3.871,0,0,1,2.45.349s3.15.7,4.55,1.05,2.8,0,5.25-.35,1.4-.7,3.15-1.049c1.4,0,1.05.349,1.75,1.049.7,1.049.35,1.4,1.05,1.4.7.35.35-2.1.7-3.148.35-.7,0-1.049,1.05-1.049s.35,1.049.7,1.749.7-.35,1.75-.35.7.7,2.8,1.05c1.75.35,1.05.7,2.1.7a15.7,15.7,0,0,0,3.85.35c.7.35-1.4,1.049-2.1,1.749-.7.349,0,1.749,0,1.749.35,1.049,0,.35-.7,1.049a7.419,7.419,0,0,1-2.45,1.049,7.824,7.824,0,0,0-1.75,1.049s-1.05,1.4-1.4,1.75a26.267,26.267,0,0,1-2.8,2.448c-1.4,1.049-4.2,1.049-5.25,1.4-1.05,0-.7,1.049-1.75,1.4-.7.349-.35-.7-1.4-1.4s-1.75,0-2.45.35-.7,1.4-.7,1.4a28.706,28.706,0,0,0-3.85,1.4c-1.4.35-1.05,2.1-2.1,2.449s-1.05-.7-3.5-1.4a11.007,11.007,0,0,0-7.7,1.4c-1.4,1.049-1.05,2.448-1.75,3.848-.7,1.049-1.75,2.448-2.8,4.2s-1.75.35-2.1-.35-1.75.35-2.45.7,0,1.748-.7,3.148-.7,2.1-.7,4.2a24.337,24.337,0,0,1-1.4,5.946,4.237,4.237,0,0,1,.35,1.749,4.7,4.7,0,0,1-.7,2.8c-.7,1.4-2.45.35-3.85,2.1-1.05,1.749,1.05,1.049,1.05,2.1,0,.7-.35,1.749-2.1,2.448-.973.388-1.081.238-1.344.086-.211-.121-.522-.242-1.455-.086-2.1.35,0,1.049,0,1.749s1.4,1.049,2.45,2.448c1.05,1.049-.35,1.4-1.4,2.1s-3.15,1.4-4.2,0,1.75-1.4,2.1-1.749,0-1.05-.35-1.4a9.96,9.96,0,0,0-1.4-2.8c-.7-.7-3.85-.7-6.3-.7s-8.05-.35-12.251.7c-3.85.7-11.9,2.1-12.951,2.8-1.4.7-1.05,1.749-2.1,1.749-1.05.349-.7-.7-2.8-.7s-2.45.35-7,1.4-2.1,1.4-7,5.6-7,2.448-8.75,1.049-2.45-1.4-4.9-.7c-2.45.35-2.45,1.05-3.85,2.1s-3.5,2.1-4.2,3.148a15.238,15.238,0,0,0-1.4,6.3c0,2.1,1.05,2.448,1.05,2.448l1.05,2.448a14.81,14.81,0,0,0,1.75.7,5.966,5.966,0,0,0,2.45.349,7.645,7.645,0,0,0,2.1-.349,1.085,1.085,0,0,1,.7.349c0,.35-1.4,1.05-1.4,1.05a4.308,4.308,0,0,1-1.75.7c-.7,0-.7,0-2.8-.7a22.323,22.323,0,0,0-3.15-.7c-2.45-.35-2.45,1.049-2.45,1.049s-1.4,2.448-1.4,3.5a5.177,5.177,0,0,1-1.05,3.148c-.7,1.75-2.1,1.05-2.8,1.4a13.21,13.21,0,0,0-2.8,2.448c-1.4,1.4-2.45,1.049-4.2,1.049s-.7.35-.7,1.4c-.35,1.049-.7.7-.7,1.748.35,1.05,1.05,1.05.7,2.8-.35,1.4-4.2,3.5-4.9,3.5a3.2,3.2,0,0,0-2.8,1.049c-1.05,1.049-2.8,1.049-5.6,1.049s-2.1-.7-3.5-1.4-2.1.7-4.2,1.049-2.1,0-3.15-.7-2.45.7-4.2.7-1.75-1.4-2.1-2.448-2.1-.7-3.5-1.749c-1.4-.7-.35-2.1-1.4-3.148s-1.4-.349-2.1-1.748a3.266,3.266,0,0,1,0-3.148c.35-.7,1.4-.7,1.75-2.1,0-1.05,1.4.7,1.4.7a10.78,10.78,0,0,0,1.75,2.448c.656.656.9.629,1.336.6a3.277,3.277,0,0,1,1.114.1c1.4.35.7.7,1.75,2.448s3.15,0,4.55-.7c1.4-.35,2.45-2.449,2.45-2.449h1.75c1.05,0,.35-1.749.35-1.749a3.869,3.869,0,0,1,1.75-1.4c1.4-1.05-.35-1.75-1.4-2.8-1.05-.7-1.75-2.8-3.85-3.848s-3.5-.7-4.9-.7-5.6.35-5.6.35l-2.8,3.5h-1.75c-1.05,0-1.75-.7-2.8-.7a17.027,17.027,0,0,0-4.9.7,7.489,7.489,0,0,0-4.9,2.8l-2.451,3.5-1.75,1.749c-.7,1.049-3.85,5.946-3.85,5.946s-.7,4.547-.7,6.3c0,1.4,1.4,1.749,2.1,2.448.35.7,1.4,1.049,1.75,2.448s4.55,3.5,6.65,5.247-2.1,1.4-2.1,1.4h-4.9a2.567,2.567,0,0,1-.783.1C209.3,373.827,206.984,373.315,204.435,373.032ZM377.344,298.18l.35-1.749c.35-.7.35,1.749.35,2.1Zm76.3-36.377a9.112,9.112,0,0,1-2.45-1.049c-1.05-.7,2.8-.7,2.8-.7l1.75-.7c1.05-.7.35,1.05.35,1.4l-1.4,1.4Zm8.75-11.543c-.022-.022-.044-.043-.067-.063-.7-.616-1.728-.3-3.084-.636-1.75-.35,1.75-1.749,1.75-1.749a4.243,4.243,0,0,0,.35-1.749c0-1.049,1.75-1.049,1.75-1.049.35,0,1.05.35,1.4.35a.825.825,0,0,0,.561.3c.356,0,.6-.408.839-.649.35-.35,0-1.049.7-1.749a.424.424,0,0,1,.18-.055c.384,0-.142,1.216.171,2.154a.685.685,0,0,0,.046.106.885.885,0,0,0,.835.359,6.047,6.047,0,0,0,1.918-.466v-1.749c0-1.049,0-.7-.35-1.4s.35-1.05,1.4-2.1a3.766,3.766,0,0,1,1.75-1.4,10.844,10.844,0,0,1,.7,2.448c.35.7,0,1.75-1.75,1.75s0,1.749-.35,2.448a2.176,2.176,0,0,1-1.4,2.1,1.244,1.244,0,0,1-.391.071c-.674,0-.759-.771-1.359-.771a3.807,3.807,0,0,0-1.75.35c-1.05.35-1.4,1.049-2.1,2.1-.467.933-.778,1.4-1.141,1.4A.941.941,0,0,1,462.4,250.261Zm22.768-.673c-.376,0-.9-.906-1.418-1.426-.7-.7.7-1.749.7-1.749.7,0,1.75.349,1.75,1.049a8.971,8.971,0,0,0-.7,1.749c-.09.268-.2.376-.332.376h0Zm-50.42-2.475a.715.715,0,0,1-.579-.7,1.466,1.466,0,0,1,.229-.7s.35-2.448.35-3.5-1.05-1.749-1.75-2.448a5.42,5.42,0,0,0-2.1-1.049h0a13.226,13.226,0,0,0-2.8-.349c-.465-.116-.621-.271-.622-.426,0-.312.622-.624.622-.624s1.75-.349,2.1-.349c.7,0,1.4-.7,2.1-1.049a.535.535,0,0,1,.228-.069c.385,0,.122.909.122,1.818,0,1.028,1.682,1.385,1.748,1.4h0a17.264,17.264,0,0,1,3.15,1.4c1.75,0,1.4-1.049,2.45-2.1.63-.63.882-.756,1.059-.756.117,0,.2.056.341.056a3.025,3.025,0,0,1,2.1,1.049c.7.7-.7.7-2.1.7-1.05,0-.35,1.4-.35,2.1s2.45,2.448,3.5,4.2c.4.673.342.879.112.879a3.45,3.45,0,0,1-1.163-.53,5.586,5.586,0,0,1-1.6.228,4.354,4.354,0,0,1-2.25-.578,3.635,3.635,0,0,0-1.643-.662c-.423,0-.615.278-.807.662-.156.156-.45.519-.822.844a2.085,2.085,0,0,1-1.284.611A1.084,1.084,0,0,1,434.747,247.113Zm39.96-12.428a5.732,5.732,0,0,1,.992-2.263l-1.75-1.749a2.055,2.055,0,0,1-.156-.9c0-.7.156-1.549.156-2.246a1.437,1.437,0,0,0-.21-.3c-.451-.512-1.245-.854-1.54-1.444,0-.678-.328-.7-1.3-1.018l-.1-.032c-.7-.349-1.05-1.749-1.05-1.749s-.01-.01-.029-.033a4.255,4.255,0,0,1-.671-1.366c-.314-.943-1.477-1.039-1.709-1.049H467.3s-.019-.006-.052-.02a2.458,2.458,0,0,1-1.348-1.728c-.35-1.4,1.4-1.049,2.1-1.4.7-.7,1.4-.35,2.8-.35,1.75,0,1.05-.7,1.4-1.049.35-.7,1.05-.7,2.1-1.049,1.4-.35,1.4,0,2.1-.7l2.8-1.4h0l1.75,1.049a6.044,6.044,0,0,1,1.4,1.049,15.153,15.153,0,0,0,2.45,1.4,3.664,3.664,0,0,0,1.387.311c.752,0,1.3-.311,2.463-.311h3.5l-.35.7a8.663,8.663,0,0,0-1.4,2.1,13.561,13.561,0,0,0-2.1,4.9v.1c0,.667.082,1.35,1.75,2.35,1.4,1.049.35,1.049-.35,1.4s-.7,1.049-1.4,2.448c-.28.559-.5.728-.739.728-.353,0-.731-.378-1.361-.378-1.05,0-1.05.35-1.75.7-1.05.35-.7.7-1.4.7a3.028,3.028,0,0,0-2.1,1.049,7.965,7.965,0,0,1-4.9,2.1,2.681,2.681,0,0,1-.639.092C474.888,235.312,474.706,235.051,474.707,234.685Zm47.573-40.429a11.712,11.712,0,0,1-1.428-.31c-2.8-.35-1.4-1.4-3.5-1.4a17.878,17.878,0,0,1-3.15.35c-.35,0-1.05-1.049-1.75-1.049H510.7c-1.4,0-4.9-.35-1.05-1.049s3.85-1.049,4.55-2.1c0-.006,0-.012,0-.017-.011-.387-.35-2.081-.35-2.081s0-.448.359-.448a.784.784,0,0,1,.342.1,11.9,11.9,0,0,1,2.1,2.1c.35.35-.7,1.049,1.05,1.049h2.45c.35-.35-.35,0,.35-.35.495-.247.465-.495.529-.495.027,0,.069.042.172.145a.307.307,0,0,0,.246.116c.082,0,.1,0,.1.468,0,.094,0,.205,0,.339v.125a5.072,5.072,0,0,0,.35,2.1.612.612,0,0,1,.246-.056c.2,0,.454.126.454.756,0,1.049.35,1.4-.35,1.4h-.005c-.456,0,.315.31.057.31Zm54.224-22.7c-1.75,0,.7-1.749.7-1.749a3.862,3.862,0,0,0-1.75-1.749c-1.4-.35-1.05-.35-1.4-1.4-.328-.984-2.194-2.275-2.426-3.009a.466.466,0,0,1-.024-.139c0-1.049.35-3.5,1.05-3.847s.7-1.049,1.75-2.1c.319-.319.541-.444.725-.444.422,0,.644.656,1.375,1.144a1.534,1.534,0,0,0,.523.282c.151,0-.049-.365-.136-.9a2.668,2.668,0,0,1-.037-.435c0-.656-.41-.629-1.145-.6-.147.005-.307.011-.48.011a5.947,5.947,0,0,1-1.175-.109,3.962,3.962,0,0,0-.725-.1c-.674,0-.041.512-.324.795-.35.35-.35.35-1.4.35s-.7.35-1.75,1.049c-.349.348-.466.581-.467.762,0,.364.467.52.467.987s.156.622.156,1.091a4.242,4.242,0,0,1-.156,1.008c-.35,1.4-1.05,0-1.05-.7v-.032c0-.078,0-.142,0-.2-.005-.392-.046-.169-.349-.472-.35-.35-1.4-.35-2.45-1.049l-.059-.041c-.937-.686.422-1.379,1.109-2.408a11.188,11.188,0,0,1,2.451-2.1c.7-.349.7-1.4.7-2.448a.622.622,0,0,0,0-.074c-.109-1.024-2.446-2.025-2.446-2.025s-1.346-3.7-1.728-4.832l-.022-.064c-.35-1.4.7-1.749,1.05-1.749s1.75-2.1,1.75-2.1l2.1-.7s2.8-.35,3.85-.35c1.05-.35,4.55-2.448,6.3-2.448h3.15c1.4,0,1.4-.35,1.4-.35l1.75-.7a2.974,2.974,0,0,1,.817-.194c.389,0,.467.311.234,1.244.35.7.35,1.4,1.049,1.4.35,0,.35-1.05.35-1.749s.7-.7,1.4-.7a5.648,5.648,0,0,1,3.15,1.049c1.05.7,1.75,2.1,2.45,2.1s.35-1.4,0-2.448-2.1-1.749-3.5-2.1-.7-.35-.7-1.4,1.05-1.4,2.1-2.1a12.689,12.689,0,0,0,3.15-2.8c.7-.7,2.8-1.4,3.15-1.749a4.657,4.657,0,0,0,1.05-1.749c0-.35,1.05,0,1.75.35l.033.018a11.99,11.99,0,0,1,2.067,2.78s.7,1.749,1.4,1.749a.752.752,0,0,0,.366-1.391l-.016-.008-.017-.009a8.013,8.013,0,0,1-1.734-1.74,10.551,10.551,0,0,1-.7-2.723q0-.038,0-.075c0-.286.1-.391.255-.391.4,0,1.145.74,1.145.74a2.613,2.613,0,0,1,1.05,1.049c.35.7.7-.349,1.75-.349s.025.683.676,2.049l.024.049c.109.433.251.6.406.6.345,0,.753-.815.995-1.3a1.57,1.57,0,0,0,.137-.693,6.881,6.881,0,0,0-.837-2.805,3.108,3.108,0,0,1-.249-.648c-.216-.885.31-1.224.6-1.8.107-.319.245-.444.406-.444.369,0,.857.656,1.344,1.143a.625.625,0,0,0,.408.235c.353,0,.544-.669,1.342-.935a2.367,2.367,0,0,1,.542-.145c.182,0-.073.232.136.472l.022.023c.339.339.021.349.637.986l.063.064c.35.35-.35.7,0,1.4a.638.638,0,0,0,.164.206c.509.426,1.709.226,2.636.844,1.4.35,1.75,1.049,3.15,4.2.7,1.574,1.05,1.923,1.312,1.923a.582.582,0,0,0,.289-.111.463.463,0,0,1,.5-.063c1.017.677,3.02,1.683,3.78,2.7q.037.049.07.1c.077.076.161.153.252.229.734.623,1.81,1.246,1.5,1.869-.35.7-2.1.35-2.8.7s-.7,1.4-.7,2.1v3.148c0,1.749-2.1.7-2.1,0l-.009-.017c-.089-.17-.178-.23-.272-.23a.829.829,0,0,0-.362.16.912.912,0,0,1-.463.16.642.642,0,0,1-.283-.069l-.01,0a3.463,3.463,0,0,0-2.8-.35c-1.75.7-1.75,1.4-2.8,1.749a1.131,1.131,0,0,1-.616.226c-.61,0-.943-.812-1.485-1.625a.946.946,0,0,0-.693-.275,3.645,3.645,0,0,0-2.457,1.673c-1.013,1.35-.723,1.072-.072,1.679.024.022.048.045.072.07.7.35.35,1.4.35,1.4v0c.025.047.411.722,2.1,1.4,1.4.7-.7,1.049-.7,1.049a7.5,7.5,0,0,1-2.1-.35c-1.05-.349,0-1.049-1.75-1.4a3.018,3.018,0,0,0-.581-.069c-1.007,0-.563.908-1.169,1.817a.963.963,0,0,1-.772.535c-.443,0-.886-.442-1.329-.885-.163-.163-.268-.231-.348-.231-.265,0-.246.743-1.052,1.28a1.887,1.887,0,0,0-.7,2.064c0,.012,0,.024,0,.035,0,.467.312,1.559.311,2.232,0,.334-.079.566-.311.566-.7,0-.35.7-1.05,1.049a1.187,1.187,0,0,1-.376.07c-.688,0-.77-.865-1.374-1.469-.081-.163-.163-.23-.239-.231-.255,0-.46.743-.46,1.28a2.906,2.906,0,0,1-1.05,2.448.969.969,0,0,1-.532.191c-.664,0-1-1.024-1.568-1.59a.7.7,0,0,0-.456-.258c-.6,0-.654,1.777-.944,2.357-.117.116-.156.156-.182.155-.052,0-.052-.155-.519-.155a7.123,7.123,0,0,0-1.75.35s.35,2.1-.7,3.148a1.114,1.114,0,0,1-.781.39c-.625,0-1.065-.74-1.319-.74-.35,0-.7-1.049-2.1-1.749a2.809,2.809,0,0,0-1.029-.241c-.787,0-.984.59-1.771.59-.695,0-.356.689-.35,1.042v.008c0,.35-.35.35-.7.7a.484.484,0,0,0,0,.7h0a3.9,3.9,0,0,0,1.4.7c1.05.349.35.7.7,1.4s-.35,1.4-.35,1.4a1.084,1.084,0,0,1-.7-.35c-.35-.35-.35-1.049-1.05-1.049H583.5v.7a1.538,1.538,0,0,1,.35,1.749c-.35.7-1.05,1.049-1.4,2.448,0,.795-.289,1.012-.671,1.012-.458,0-1.047-.312-1.43-.312-.7,0-2.1.7-3.85.7Zm29.752-12.242v-1.749c0-.349.7-1.049.7-1.049.038,0,.075,0,.111,0,1.27.073.93,1.424.589,2.445a1.048,1.048,0,0,1-.845.578A.86.86,0,0,1,606.256,159.319Z" transform="translate(-92.793 -0.587)"/>
      </g>
    </g>
    <text id="シナプス" class="cls-7" transform="translate(2430 -1147)"><tspan x="-157.25" y="0">シナプス</tspan></text>
    <text id="ねむろ" class="cls-7" transform="translate(2430 -1050)"><tspan x="-119" y="0">ねむろ</tspan></text>
  </g>
</svg>
